# xmcd CD database file
#
# Track frame offsets:
#	150
#	13411
#	24253
#	33951
#	45683
#	63828
#	78278
#	92143
#	103763
#	115308
#	134301
#	146736
#	165368
#	179091
#	187573
#	200708
#	214023
#	231673
#	244791
#	257928
#	270046
#	289606
#
# Disc length: 4077 seconds
#
# Revision: 0
# Processed by: cddbd v1.5PL3 Copyright (c) Steve Scherf et al.
# Submitted via: CDex 1.51
#
DISCID=360feb16
DTITLE=Sidney Bechet - Blues in the Air
DYEAR=1900
DGENRE=Jazz
TTITLE0=Mapel Leaf Rag
TTITLE1=One O'Clock Jump
TTITLE2=The Sheikh of Araby
TTITLE3=Limehouse Blues
TTITLE4=Dear Old Southland
TTITLE5=Mood Indigo
TTITLE6=Egyptian Fantasy
TTITLE7=Baby Won't You Please Come Home
TTITLE8=Rose Room
TTITLE9=Jazz Me Blues
TTITLE10=Blues in the Air
TTITLE11=Summertime
TTITLE12=Twelfth Street Rag
TTITLE13=Blues of Bechet
TTITLE14=Bechet's Steady Rider
TTITLE15=Saturday Night Blues
TTITLE16=China Boy
TTITLE17=Blues in Thirds
TTITLE18=Save it, Pretty Mama
TTITLE19=Coal Black Shine
TTITLE20=Blue Horizon
TTITLE21=Muskrat Ramble
EXTD=
EXTT0=
EXTT1=
EXTT2=
EXTT3=
EXTT4=
EXTT5=
EXTT6=
EXTT7=
EXTT8=
EXTT9=
EXTT10=
EXTT11=
EXTT12=
EXTT13=
EXTT14=
EXTT15=
EXTT16=
EXTT17=
EXTT18=
EXTT19=
EXTT20=
EXTT21=
PLAYORDER=
